<?xml version="1.0" encoding="UTF-8" standalone="no"?>
<!DOCTYPE svg PUBLIC "-//W3C//DTD SVG 1.1//EN" "http://www.w3.org/Graphics/SVG/1.1/DTD/svg11.dtd">
<svg width="100%" height="100%" viewBox="0 0 4725 4725" version="1.1" xmlns="http://www.w3.org/2000/svg" xmlns:xlink="http://www.w3.org/1999/xlink" xml:space="preserve" xmlns:serif="http://www.serif.com/" style="fill-rule:evenodd;clip-rule:evenodd;stroke-linejoin:round;stroke-miterlimit:2;">
    <g id="Layer-1" serif:id="Layer 1" transform="matrix(4.16667,0,0,4.16667,0,0)">
        <g transform="matrix(4.59401,0,0,4.59401,-1423.09,155.12)">
            <g opacity="0.25">
                <path d="M341.15,118.78C341.15,127.32 334.96,133.91 327.45,133.91C323.61,133.91 320.8,132.59 318.91,130.41L318.91,133.1L310.31,133.1L310.31,92.99L318.91,92.99L318.91,107.15C320.8,104.97 323.61,103.65 327.45,103.65C334.96,103.65 341.15,110.24 341.15,118.78ZM332.55,118.78C332.55,114.48 329.68,111.79 325.73,111.79C321.78,111.79 318.91,114.48 318.91,118.78C318.91,123.08 321.78,125.77 325.73,125.77C329.68,125.77 332.55,123.08 332.55,118.78Z" style="fill:none;fill-rule:nonzero;stroke:black;stroke-width:0.42px;"/>
            </g>
        </g>
        <g transform="matrix(4.59401,0,0,4.59401,-1423.09,155.12)">
            <g opacity="0.25">
                <path d="M372.1,104.45L362.3,132.25C359.09,141.36 353.99,144.97 345.97,144.57L345.97,136.55C349.98,136.55 351.87,135.29 353.13,131.79L341.72,104.45L351.18,104.45L357.54,121.99L362.93,104.45L372.1,104.45Z" style="fill:none;fill-rule:nonzero;stroke:black;stroke-width:0.42px;"/>
            </g>
        </g>
        <g transform="matrix(4.59401,0,0,4.59401,-1423.09,155.12)">
            <g opacity="0.25">
                <path d="M324.13,185.99L319.77,185.99L319.77,199.17L310.6,199.17L310.6,159.05L326.65,159.05C334.27,159.05 340.41,165.18 340.41,172.81C340.41,177.74 337.43,182.21 333.02,184.44L341.56,199.17L331.7,199.17L324.13,185.99ZM319.77,177.97L326.65,177.97C329.17,177.97 331.24,175.74 331.24,172.81C331.24,169.89 329.18,167.65 326.65,167.65L319.77,167.65L319.77,177.97Z" style="fill:none;fill-rule:nonzero;stroke:black;stroke-width:0.42px;"/>
            </g>
        </g>
        <g transform="matrix(4.59401,0,0,4.59401,-1423.09,155.12)">
            <g opacity="0.25">
                <path d="M358.68,192.29C361.03,192.29 363.04,191.37 364.18,190.11L371.06,194.06C368.25,197.96 364.01,199.96 358.57,199.96C348.77,199.96 342.69,193.37 342.69,184.83C342.69,176.29 348.88,169.7 357.94,169.7C366.31,169.7 372.5,176.18 372.5,184.83C372.5,186.03 372.39,187.18 372.16,188.27L351.81,188.27C352.9,191.26 355.53,192.29 358.68,192.29ZM363.96,181.86C363.04,178.54 360.46,177.33 357.88,177.33C354.61,177.33 352.44,178.94 351.63,181.86L363.96,181.86Z" style="fill:none;fill-rule:nonzero;stroke:black;stroke-width:0.42px;"/>
            </g>
        </g>
        <g transform="matrix(4.59401,0,0,4.59401,-1423.09,155.12)">
            <g opacity="0.25">
                <path d="M398.46,190.58C398.46,197.17 392.73,199.98 386.54,199.98C380.81,199.98 376.45,197.8 374.22,193.16L381.67,188.92C382.42,191.1 384.02,192.3 386.54,192.3C388.6,192.3 389.63,191.67 389.63,190.52C389.63,187.37 375.53,189.03 375.53,179.11C375.53,172.86 380.8,169.71 386.76,169.71C391.4,169.71 395.53,171.77 397.94,175.84L390.6,179.79C389.8,178.3 388.65,177.27 386.76,177.27C385.27,177.27 384.35,177.84 384.35,178.88C384.36,182.15 398.46,179.97 398.46,190.58Z" style="fill:none;fill-rule:nonzero;stroke:black;stroke-width:0.42px;"/>
            </g>
        </g>
        <g transform="matrix(4.59401,0,0,4.59401,-1423.09,155.12)">
            <g opacity="0.25">
                <path d="M412.78,178.75L412.78,188.91C412.78,191.37 414.9,191.6 418.68,191.37L418.68,199.16C407.45,200.31 404.18,196.92 404.18,188.9L404.18,178.76L399.59,178.76L399.59,170.51L404.18,170.51L404.18,165.06L412.78,162.48L412.78,170.5L418.68,170.5L418.68,178.75L412.78,178.75Z" style="fill:none;fill-rule:nonzero;stroke:black;stroke-width:0.42px;"/>
            </g>
        </g>
        <g transform="matrix(4.59401,0,0,4.59401,-1423.09,155.12)">
            <g opacity="0.25">
                <path d="M441.32,169.94L441.32,179.68C437.77,179.11 432.72,180.54 432.72,186.21L432.72,199.16L424.12,199.16L424.12,170.5L432.72,170.5L432.72,175.6C433.87,171.78 437.71,169.94 441.32,169.94Z" style="fill:none;fill-rule:nonzero;stroke:black;stroke-width:0.42px;"/>
            </g>
        </g>
        <g transform="matrix(4.59401,0,0,4.59401,-1423.09,155.12)">
            <g opacity="0.25">
                <path d="M459.03,192.29C461.38,192.29 463.39,191.37 464.53,190.11L471.41,194.06C468.6,197.96 464.36,199.96 458.92,199.96C449.12,199.96 443.04,193.37 443.04,184.83C443.04,176.29 449.23,169.7 458.29,169.7C466.66,169.7 472.85,176.18 472.85,184.83C472.85,186.03 472.74,187.18 472.51,188.27L452.16,188.27C453.24,191.26 455.88,192.29 459.03,192.29ZM464.3,181.86C463.38,178.54 460.8,177.33 458.22,177.33C454.95,177.33 452.78,178.94 451.97,181.86L464.3,181.86Z" style="fill:none;fill-rule:nonzero;stroke:black;stroke-width:0.42px;"/>
            </g>
        </g>
        <g transform="matrix(4.59401,0,0,4.59401,-1423.09,155.12)">
            <g opacity="0.25">
                <path d="M508.55,184.84C508.55,193.38 502.36,199.97 494.85,199.97C491.01,199.97 488.2,198.65 486.31,196.47L486.31,210.63L477.71,210.63L477.71,170.51L486.31,170.51L486.31,173.2C488.2,171.02 491.01,169.7 494.85,169.7C502.36,169.71 508.55,176.3 508.55,184.84ZM499.95,184.84C499.95,180.54 497.08,177.85 493.13,177.85C489.18,177.85 486.31,180.54 486.31,184.84C486.31,189.14 489.18,191.83 493.13,191.83C497.08,191.83 499.95,189.14 499.95,184.84Z" style="fill:none;fill-rule:nonzero;stroke:black;stroke-width:0.42px;"/>
            </g>
        </g>
        <g transform="matrix(4.59401,0,0,4.59401,-1423.09,155.12)">
            <g opacity="0.25">
                <path d="M511.98,184.84C511.98,176.3 518.74,169.71 527.17,169.71C535.6,169.71 542.36,176.3 542.36,184.84C542.36,193.38 535.6,199.97 527.17,199.97C518.74,199.97 511.98,193.38 511.98,184.84ZM533.76,184.84C533.76,180.77 530.89,178.08 527.17,178.08C523.44,178.08 520.58,180.77 520.58,184.84C520.58,188.91 523.45,191.6 527.17,191.6C530.9,191.61 533.76,188.91 533.76,184.84Z" style="fill:none;fill-rule:nonzero;stroke:black;stroke-width:0.42px;"/>
            </g>
        </g>
        <g transform="matrix(4.59401,0,0,4.59401,-1423.09,155.12)">
            <g opacity="0.25">
                <path d="M544.36,194.53C544.36,191.55 546.82,189.08 549.81,189.08C552.79,189.08 555.25,191.54 555.25,194.53C555.25,197.51 552.79,199.97 549.81,199.97C546.83,199.97 544.36,197.51 544.36,194.53Z" style="fill:none;fill-rule:nonzero;stroke:black;stroke-width:0.42px;"/>
            </g>
        </g>
    </g>
</svg>
