<?xml version="1.0" encoding="utf-8"?>
<!-- Generator: Adobe Illustrator 23.0.1, SVG Export Plug-In . SVG Version: 6.00 Build 0)  -->
<svg version="1.1" id="Layer_1" xmlns="http://www.w3.org/2000/svg" xmlns:xlink="http://www.w3.org/1999/xlink" x="0px" y="0px"
	 viewBox="0 0 36 89.8" style="enable-background:new 0 0 36 89.8;" xml:space="preserve">
<style type="text/css">
	.st0{fill:#00FFCD;}
</style>
<g>
	<path class="st0" d="M4.4,26.7c-2.5,0-4.4,2-4.4,4.4v25.5c0,2.5,2,4.4,4.4,4.4s4.4-2,4.4-4.4V31.1C8.9,28.6,6.9,26.7,4.4,26.7z"/>
	<path class="st0" d="M31.1,26.7c-2.5,0-4.4,2-4.4,4.4v25.5c0,2.5,2,4.4,4.4,4.4s4.4-2,4.4-4.4V31.1C35.5,28.6,33.6,26.7,31.1,26.7z
		"/>
	<path class="st0" d="M17.8,35.5c-2.5,0-4.4,2-4.4,4.4v8.9c0,2.5,2,4.4,4.4,4.4s4.4-2,4.4-4.4V40C22.2,37.5,20.2,35.5,17.8,35.5z"/>
	<path class="st0" d="M26.7,19.6l1,1c0.8,1,2.1,1.6,3.4,1.6c2.5,0,4.4-2,4.4-4.4c0-1.2-0.5-2.3-1.3-3.1l0,0L21,1.3l0,0
		C20.1,0.5,19,0,17.8,0c-2.5,0-4.4,2-4.4,4.4h0v4.8c0,1.5-1.2,2.8-2.8,2.8c-0.6,0-1.2-0.2-1.7-0.6v0l-1.3-1.3l0,0
		C6.8,9.4,5.7,8.9,4.4,8.9C2,8.9,0,10.9,0,13.3c0,1.4,0.6,2.6,1.6,3.4l12.7,12.7c0.8,1,2.1,1.6,3.4,1.6c2.5,0,4.4-2,4.4-4.4v-4.9
		c0-1.5,1.2-2.8,2.8-2.8C25.6,19,26.2,19.2,26.7,19.6L26.7,19.6z"/>
</g>
</svg>
