<?xml version="1.0" encoding="utf-8"?>
<!-- Generator: Adobe Illustrator 20.1.0, SVG Export Plug-In . SVG Version: 6.00 Build 0)  -->
<svg version="1.1" id="Layer_1" xmlns="http://www.w3.org/2000/svg" xmlns:xlink="http://www.w3.org/1999/xlink" x="0px" y="0px"
	 viewBox="0 0 158.3 90" style="enable-background:new 0 0 158.3 90;" xml:space="preserve">
<style type="text/css">
	.st0{fill:#D1B87D;}
</style>
<g>
	<path class="st0" d="M54.1,41.8L51.9,38l-0.2-0.3l0.1-0.1l0,0l0,0l-2.2-3.8l-0.3-0.4l0,0l-0.8,1.5l-0.1,0.2l-2.7,4.8l-2.4,4.3
		L42,46.3l-1.2,2.2l0,0l-1.2,2.2l0,0l-0.2,0.4l0,0l-0.9-1.5L38.2,49l-1.3-2.4l0,0L36,45.2l-0.3-0.5l0,0l0,0.1l-1.3-2.3l0-0.1
		l-2.4-4.3l-0.3-0.5l-2.2-3.8l-0.3-0.5l-0.8,1.5l-0.2,0.4l0,0l0,0l-1.3,2.4l-0.8,1.5l-0.1,0.2l-2.7,4.8l-0.2-0.7L22.8,43h0l0,0.3
		l-0.2-0.2l0,0.1L21,40.5L20.7,40h0h0h0l-0.5-1l-1.6-2.9l-0.1-0.2l0-0.4l-1.5-3v0l-0.3-0.1l-0.2-0.1l-2.3-4l-0.1-0.2l0,0l0,0
		l-2.4-4.2l-0.8-1.4l0,0l0.6-1.1l1.8-3.2l1.2-2.2l1.2-2.2l1.1-2H0l6,10.6l0,0l0,0l0.6,1l0.2,0.4l2.6,4.3l2.6,4.2v0l-0.1,0.2l0.4,1
		l0,0l0,0l1.2,2.2H13v-0.1l0.3,0l0.2,0.1l0.5,0.8l0.9,1.3l0.1,0v0l-0.1,0l0,0.2l0.8,1.5l1.5,2.6l0.1,0.2l0.9,1.8l0.7,1.5h0l0-0.2
		l0.9,1.4l0.8,1.4l0.8,1.3l0,0l1.4,2.4l0.1,0.2l0.2,0.4l0.6,1.1l0.7,1.3v0l0,0l0.9,1.5l0.5,0.8l0.4,0.6l11.1,19.9l16-28.4l0.2-0.5
		l0,0l0,0l2.4-4.2l-1.6-2.8L54.1,41.8z M30.8,48.7L28.3,53l-0.1,0.2L28.1,53l-0.3-0.5L26.9,51l-0.8-1.3l-0.6-1.1l2.8-5l0.8-1.5
		l0.3,0.5l2.4,4.3L30.8,48.7z"/>
	<polygon class="st0" points="36.8,20.8 39.2,25.1 41.6,20.8 44.5,15.7 46.6,12 31.8,12 34.1,16.1 	"/>
	<path class="st0" d="M69.6,12l-6.5,11.5l-2.5-4.4l4-7.1H51.5l-2.1,3.8L48,18.3l-1,1.8v0l-7.8,13.7l-7.6-13.4l-2.4-4.4L26.9,12h-5.1
		l-3.5,6.3l-1.4,2.4l-1.1,1.9l0.5,1l0.1,0.4c0,0,0,0,0,0c0,0-0.4-0.3-0.4-0.3v0l0.3,0.2l0.1,0l2.3,3.9l0.3,0.4l0,0l0,0l1.7,3l0,0
		c0,0,0,0,0,0l0,0l0,0l0.1,0.2l0-0.1l0.4,0.6H21v0.2l0.1,0l0,0l0.1,0.2l1.1,1.9l0.6,1.1l0.6,0.2l0.4,0v0l-0.2-0.4l0.7-1.3l1.1-1.8h0
		l0-0.5l1.1-2.3l0-0.1l0,0l0.5-0.9l0,0l0.2-0.4l0.5-0.9l0-0.1l0,0l0,0l1.1-2l0,0l0,0l0.2,0.4l2.2,3.9l2.4,4.3l2.7,4.8l0,0l0,0
		l1.6,2.9l0.8,1.5l0.2-0.3l1.1-2l1.1-2l0,0l7.8-13.7h0l1.7,3l2.4,4.3l2.5,4.4l2.4,4.3l2.4-4.3l2.2-4l2.4-4.4L74.5,12H69.6z M25,23.7
		L25,23.7l-1.9,3.2l-0.1,0v-0.2L22.1,25h-0.1l-0.7-1.1l-0.1-0.4L21,22.7v0l0.4-1.1l-0.1,0l3-5.4l2.4,4.3L25,23.7z M58.5,31.8
		L56,27.4l-2.4-4.3l-1.7-3l2.2-4h0l1.7,3l2.4,4.3l2.5,4.4L58.5,31.8z"/>
</g>
<g>
	<g>
		<path class="st0" d="M95,26.4l-3,3.3c-1.6-0.9-2.7-1.4-3.4-1.4c-0.5,0-1,0.2-1.4,0.6c-0.4,0.4-0.6,0.9-0.6,1.5c0,1.1,1,2.1,3,2.9
			c1.5,0.6,2.6,1.2,3.4,1.7c0.8,0.5,1.4,1.2,1.9,2.1c0.5,0.9,0.8,1.9,0.8,2.9c0,1.9-0.8,3.6-2.4,5.1c-1.6,1.4-3.4,2.2-5.6,2.2
			c-2.3,0-4.7-1.1-6.9-3.3l3.2-3.7c1.4,1.5,2.8,2.2,4,2.2c0.6,0,1.1-0.3,1.7-0.8c0.5-0.5,0.8-1.1,0.8-1.6c0-1.2-1.2-2.2-3.7-3.1
			c-1.4-0.5-2.4-1-3-1.5c-0.6-0.5-1.1-1.1-1.5-2c-0.4-0.9-0.6-1.8-0.6-2.7c0-2,0.7-3.6,2-4.9c1.3-1.3,3-1.9,5.1-1.9
			C91.2,24.1,93.3,24.9,95,26.4z"/>
		<path class="st0" d="M100.7,24.4h5.8l4.2,13.6l4.2-13.6h5.6l2.9,22.6h-4.6l-2-15.9l-5,15.9h-2.2l-5.1-16.1L102.6,47h-4.7
			L100.7,24.4z"/>
		<path class="st0" d="M125.3,24.4h4.3l3.6,15.4l3.8-15.4h3.1l3.7,15.5l3.7-15.5h4.3L146.5,47h-4.6l-3.3-13.9L135.3,47h-4.6
			L125.3,24.4z"/>
	</g>
	<g>
		<path class="st0" d="M80.7,50.8h3.5c2.8,0,4.8,0.7,6.2,2.2c1.4,1.5,2,3.1,2,5c0,1.9-0.7,3.6-2.1,5c-1.4,1.5-3.4,2.2-6.1,2.2h-3.5
			V50.8z M82.7,52.8v10.6h0.1c1.5,0,2.6-0.1,3.3-0.2c0.7-0.1,1.4-0.4,2.1-0.9c0.7-0.4,1.2-1,1.6-1.8c0.4-0.7,0.6-1.5,0.6-2.4
			c0-1.1-0.3-2.1-0.9-3c-0.6-0.9-1.4-1.5-2.2-1.8c-0.9-0.3-2-0.5-3.5-0.5H82.7z"/>
		<path class="st0" d="M94.6,50.8h8v2h-6v3.6h6v1.9h-6v5h6v1.9h-8V50.8z"/>
		<path class="st0" d="M113.7,52.4l-1.6,1.3c-0.4-0.4-0.8-0.8-1.1-1c-0.3-0.2-0.8-0.3-1.5-0.3c-0.7,0-1.3,0.2-1.7,0.5
			c-0.4,0.3-0.7,0.7-0.7,1.2c0,0.4,0.2,0.8,0.6,1.2c0.4,0.3,1,0.7,2,1.1c0.9,0.4,1.6,0.8,2.2,1.1c0.5,0.3,0.9,0.7,1.3,1.1
			c0.3,0.4,0.6,0.9,0.7,1.3c0.2,0.5,0.2,0.9,0.2,1.5c0,1.2-0.4,2.2-1.3,3.1s-1.9,1.3-3.2,1.3c-1.2,0-2.3-0.3-3.2-1
			c-0.9-0.7-1.6-1.7-2.1-3l2-0.6c0.7,1.6,1.8,2.4,3.3,2.4c0.7,0,1.3-0.2,1.8-0.6c0.5-0.4,0.7-1,0.7-1.6c0-0.4-0.1-0.8-0.4-1.2
			c-0.2-0.4-0.6-0.7-0.9-1c-0.4-0.3-1-0.5-1.8-0.9c-0.8-0.3-1.4-0.6-1.9-0.9c-0.4-0.3-0.8-0.6-1.1-1c-0.3-0.4-0.6-0.8-0.7-1.1
			c-0.1-0.4-0.2-0.8-0.2-1.2c0-1,0.4-1.9,1.2-2.6c0.8-0.7,1.8-1.1,3-1.1c0.8,0,1.6,0.2,2.4,0.5C112.5,51.2,113.2,51.7,113.7,52.4z"
			/>
		<path class="st0" d="M116.4,50.8h1.9v14.4h-1.9V50.8z"/>
		<path class="st0" d="M135.5,53.1l-1.5,1.4c-1.5-1.4-3.2-2.2-5.1-2.2c-1.7,0-3.1,0.5-4.2,1.6c-1.1,1.1-1.7,2.4-1.7,4.1
			c0,1.4,0.5,2.7,1.6,3.9c1.1,1.1,2.6,1.7,4.5,1.7c2.9,0,4.7-1.2,5.4-3.7h-3.9v-2h6.2c0,1-0.1,1.8-0.2,2.4c-0.1,0.6-0.4,1.2-0.8,1.9
			c-0.4,0.7-1,1.3-1.7,1.9c-0.7,0.6-1.4,1-2.2,1.2c-0.8,0.2-1.7,0.4-2.8,0.4c-2.5,0-4.5-0.8-6-2.3c-1.5-1.6-2.2-3.4-2.2-5.4
			c0-2.1,0.8-3.9,2.3-5.4c1.5-1.5,3.4-2.2,5.5-2.2c1.3,0,2.5,0.2,3.5,0.6C133.3,51.3,134.4,52.1,135.5,53.1z"/>
		<path class="st0" d="M139.3,50.2l10.7,11V50.8h2v15.1L141.3,55v10.3h-2V50.2z"/>
	</g>
</g>
</svg>
