<?xml version="1.0" encoding="utf-8"?>
<!-- Generator: Adobe Illustrator 20.1.0, SVG Export Plug-In . SVG Version: 6.00 Build 0)  -->
<svg version="1.1" id="Layer_1" xmlns="http://www.w3.org/2000/svg" xmlns:xlink="http://www.w3.org/1999/xlink" x="0px" y="0px"
	 viewBox="0 0 36 89.8" style="enable-background:new 0 0 36 89.8;" xml:space="preserve">
<style type="text/css">
	.st0{fill:#FFFFFF;}
</style>
<polygon class="st0" points="26,43.1 26,54.1 26,69.2 26,80.2 35.8,89.8 36,89.8 36,69.2 36,54.1 36,33.8 35.8,33.8 "/>
<polygon class="st0" points="13,46.5 13,54.1 13,69.2 13,76.8 18,72 23,76.8 23,69.2 23,54.1 23,46.5 18,51.4 "/>
<polygon class="st0" points="0,33.8 0,54.1 0,69.2 0,89.8 0.2,89.8 10,80.2 10,69.2 10,54.1 10,43.1 0.2,33.8 "/>
<polygon class="st0" points="0,28.7 18,46.7 24.9,39.8 0,14.9 "/>
<polygon class="st0" points="23,30 23,19.5 13,9.2 13,16.4 13,23 23,33.3 "/>
<polygon class="st0" points="22.2,0 15.3,6.9 36,27.6 36,13.8 "/>
</svg>
