<?xml version="1.0" encoding="utf-8"?>
<!-- Generator: Adobe Illustrator 20.1.0, SVG Export Plug-In . SVG Version: 6.00 Build 0)  -->
<svg version="1.1" id="Layer_1" xmlns="http://www.w3.org/2000/svg" xmlns:xlink="http://www.w3.org/1999/xlink" x="0px" y="0px"
	 viewBox="0 0 36 95" style="enable-background:new 0 0 36 95;" xml:space="preserve">
<style type="text/css">
	.st0{fill:#1C1C1C;}
</style>
<g>
	<polygon class="st0" points="26,48.3 26,59.3 26,74.4 26,85.4 35.8,95 36,95 36,74.4 36,59.3 36,39 35.8,39 	"/>
	<polygon class="st0" points="13,51.7 13,59.3 13,74.4 13,82 18,77.2 23,82 23,74.4 23,59.3 23,51.7 18,56.6 	"/>
	<polygon class="st0" points="0,39 0,59.3 0,74.4 0,95 0.2,95 10,85.4 10,74.4 10,59.3 10,48.3 0.2,39 	"/>
	<polygon class="st0" points="0,32.9 18,50.9 24.9,44 0,19.1 	"/>
	<polygon class="st0" points="18,0 11.1,6.9 36,31.8 36,18 	"/>
	<polygon class="st0" points="26,26.8 9,9.3 9,23.1 26,40.6 	"/>
</g>
</svg>
